<?xml version="1.0" encoding="UTF-8" standalone="no"?>
<svg
   version="1.1"
   viewBox="-5.0 -10.0 110.0 135.0"
   id="svg18"
   sodipodi:docname="noun-data-collection-7032531.svg"
   inkscape:version="1.3.2 (091e20e, 2023-11-25)"
   xmlns:inkscape="http://www.inkscape.org/namespaces/inkscape"
   xmlns:sodipodi="http://sodipodi.sourceforge.net/DTD/sodipodi-0.dtd"
   xmlns="http://www.w3.org/2000/svg"
   xmlns:svg="http://www.w3.org/2000/svg">
  <defs
     id="defs18" />
  <sodipodi:namedview
     id="namedview18"
     pagecolor="#ffffff"
     bordercolor="#000000"
     borderopacity="0.25"
     inkscape:showpageshadow="2"
     inkscape:pageopacity="0.0"
     inkscape:pagecheckerboard="0"
     inkscape:deskcolor="#d1d1d1"
     inkscape:zoom="1.7481481"
     inkscape:cx="54.915254"
     inkscape:cy="67.5"
     inkscape:window-width="1312"
     inkscape:window-height="449"
     inkscape:window-x="0"
     inkscape:window-y="25"
     inkscape:window-maximized="0"
     inkscape:current-layer="svg18" />
  <g
     id="g17">
    <path
       d="m50 69.16c-11.398 0-20.328-4.8516-20.328-11.051 0-2.7891 1.8281-5.4258 5.1445-7.4258 3.0273-1.8242 7.1836-3.0547 11.707-3.4688v0.003906c0.76172-0.054688 1.4258 0.50781 1.4961 1.2695 0.070313 0.75781-0.48438 1.4336-1.2422 1.5195-4.1094 0.375-7.8438 1.4688-10.516 3.0742-2.4453 1.4727-3.7891 3.2617-3.7891 5.0273 0 1.9961 1.7422 4.0273 4.7812 5.5742 3.3828 1.7227 7.9062 2.6719 12.746 2.6719s9.3672-0.94922 12.746-2.6719c3.0391-1.5508 4.7812-3.582 4.7812-5.5742 0-1.7695-1.3477-3.5547-3.7891-5.0273-2.6719-1.6094-6.3984-2.6992-10.516-3.0742-0.375-0.027343-0.72266-0.20703-0.96484-0.49219-0.24609-0.28516-0.36328-0.66016-0.32812-1.0312 0.035156-0.375 0.21875-0.71875 0.50781-0.95703 0.28906-0.23828 0.66406-0.35156 1.0391-0.30859 4.5234 0.41016 8.6797 1.6445 11.707 3.4688 3.3164 2 5.1445 4.6367 5.1445 7.4258 0 6.1914-8.9297 11.047-20.328 11.047z"
       id="path1" />
    <path
       d="m50 81.531c-5.8711 0-11.434-1.3398-15.258-3.668-3.2695-2-5.0703-4.6172-5.0703-7.3828 0-0.77344 0.62891-1.4023 1.4023-1.4023 0.77344 0 1.3984 0.62891 1.3984 1.4023 0 1.75 1.3242 3.5234 3.7305 4.9883 3.3984 2.0703 8.4258 3.2617 13.801 3.2617 5.3711 0 10.398-1.1875 13.801-3.2617 2.3984-1.4648 3.7305-3.2383 3.7305-4.9883h-0.003906c0-0.77344 0.625-1.4023 1.3984-1.4023 0.77344 0 1.4023 0.62891 1.4023 1.4023 0 2.7656-1.8008 5.3867-5.0703 7.3828-3.8281 2.3281-9.3906 3.668-15.262 3.668z"
       id="path2" />
    <path
       d="m50 93.898c-5.8711 0-11.434-1.3359-15.258-3.668-3.2695-1.9922-5.0703-4.6172-5.0703-7.3789v-24.742c0-0.77344 0.62891-1.3984 1.4023-1.3984 0.77344 0 1.3984 0.625 1.3984 1.3984v24.742c0 1.75 1.3242 3.5234 3.7305 4.9883 3.3984 2.0703 8.4258 3.2617 13.797 3.2617s10.398-1.1875 13.801-3.2578c2.3984-1.4688 3.7305-3.2383 3.7305-4.9883l-0.003906-24.746c0-0.77344 0.62891-1.3984 1.4023-1.3984 0.77344 0 1.3984 0.625 1.3984 1.3984v24.742c0 2.7656-1.8008 5.3867-5.0703 7.3789-3.8242 2.332-9.3867 3.668-15.258 3.668z"
       id="path3" />
    <path
       d="m30 38.898h-22.5c-0.77344 0-1.3984-0.625-1.3984-1.3984v-30c0-0.77344 0.625-1.3984 1.3984-1.3984h15c0.77344 0 1.3984 0.625 1.3984 1.3984s-0.625 1.3984-1.3984 1.3984h-13.602v27.203h19.703v-11.102c0-0.77344 0.625-1.3984 1.3984-1.3984s1.3984 0.625 1.3984 1.3984v12.5c0 0.37109-0.14453 0.72656-0.41016 0.98828-0.26172 0.26562-0.61719 0.41016-0.98828 0.41016z"
       id="path4" />
    <path
       d="m30 21.398c-0.77344 0-1.3984-0.625-1.3984-1.3984v-4.5c0-0.77344 0.625-1.3984 1.3984-1.3984s1.3984 0.625 1.3984 1.3984v4.5c0 0.37109-0.14453 0.72656-0.41016 0.98828-0.26172 0.26562-0.61719 0.41016-0.98828 0.41016z"
       id="path5" />
    <path
       d="m30 16.898h-7.5c-0.77344 0-1.3984-0.625-1.3984-1.3984v-8c0-0.57422 0.34766-1.0898 0.88281-1.3008 0.53516-0.21094 1.1445-0.074219 1.5352 0.34375l7.5 8c0.38281 0.40625 0.48828 1 0.26562 1.5117-0.22266 0.51562-0.72656 0.84375-1.2852 0.84375zm-6.1016-2.8008h2.8672l-2.8672-3.0586z"
       id="path6" />
    <path
       d="m24.25 22.398h-11c-0.77344 0-1.3984-0.625-1.3984-1.3984s0.625-1.3984 1.3984-1.3984h11c0.77344 0 1.3984 0.625 1.3984 1.3984s-0.625 1.3984-1.3984 1.3984z"
       id="path7" />
    <path
       d="m24.25 27.898h-11c-0.77344 0-1.3984-0.625-1.3984-1.3984s0.625-1.3984 1.3984-1.3984h11c0.77344 0 1.3984 0.625 1.3984 1.3984s-0.625 1.3984-1.3984 1.3984z"
       id="path8" />
    <path
       d="m24.25 33.398h-11c-0.77344 0-1.3984-0.625-1.3984-1.3984s0.625-1.3984 1.3984-1.3984h11c0.77344 0 1.3984 0.625 1.3984 1.3984s-0.625 1.3984-1.3984 1.3984z"
       id="path9" />
    <path
       d="m70 21.398c-0.77344 0-1.3984-0.625-1.3984-1.3984v-12.5c0-0.77344 0.625-1.3984 1.3984-1.3984h15c0.77344 0 1.3984 0.625 1.3984 1.3984s-0.625 1.3984-1.3984 1.3984h-13.602v11.102c0 0.37109-0.14453 0.72656-0.41016 0.98828-0.26172 0.26562-0.61719 0.41016-0.98828 0.41016z"
       id="path10" />
    <path
       d="m92.5 38.898h-22.5c-0.77344 0-1.3984-0.625-1.3984-1.3984v-12.5c0-0.77344 0.625-1.3984 1.3984-1.3984s1.3984 0.625 1.3984 1.3984v11.102h19.703v-20.602c0-0.77344 0.625-1.3984 1.3984-1.3984s1.3984 0.625 1.3984 1.3984v22c0 0.37109-0.14453 0.72656-0.41016 0.98828-0.26172 0.26562-0.61719 0.41016-0.98828 0.41016z"
       id="path11" />
    <path
       d="m92.5 16.898h-7.5c-0.77344 0-1.3984-0.625-1.3984-1.3984v-8c0-0.57422 0.34766-1.0898 0.88281-1.3008 0.53516-0.21094 1.1445-0.074219 1.5352 0.34375l7.5 8c0.38281 0.40625 0.48828 1 0.26562 1.5117-0.22266 0.51562-0.72656 0.84375-1.2852 0.84375zm-6.1016-2.8008h2.8672l-2.8672-3.0586z"
       id="path12" />
    <path
       d="m86.75 22.398h-11c-0.77344 0-1.3984-0.625-1.3984-1.3984s0.625-1.3984 1.3984-1.3984h11c0.77344 0 1.3984 0.625 1.3984 1.3984s-0.625 1.3984-1.3984 1.3984z"
       id="path13" />
    <path
       d="m86.75 27.898h-11c-0.77344 0-1.3984-0.625-1.3984-1.3984s0.625-1.3984 1.3984-1.3984h11c0.77344 0 1.3984 0.625 1.3984 1.3984s-0.625 1.3984-1.3984 1.3984z"
       id="path14" />
    <path
       d="m86.75 33.398h-11c-0.77344 0-1.3984-0.625-1.3984-1.3984s0.625-1.3984 1.3984-1.3984h11c0.77344 0 1.3984 0.625 1.3984 1.3984s-0.625 1.3984-1.3984 1.3984z"
       id="path15" />
    <path
       d="m53.5 43.637c-0.77344 0-1.3984-0.625-1.3984-1.3984v-15.238c0-0.77344 0.625-1.3984 1.3984-1.3984h15.102v-4.2031h-37.203v4.1992l15.102 0.003906c0.77344 0 1.3984 0.625 1.3984 1.3984v15.238c0 0.77344-0.625 1.3984-1.3984 1.3984s-1.3984-0.625-1.3984-1.3984v-13.84h-15.102c-0.77344 0-1.3984-0.625-1.3984-1.3984v-7c0-0.77344 0.625-1.3984 1.3984-1.3984h40c0.77344 0 1.3984 0.625 1.3984 1.3984v7c0 0.37109-0.14453 0.72656-0.41016 0.98828-0.26172 0.26562-0.61719 0.41016-0.98828 0.41016h-15.102v13.84c0 0.37109-0.14453 0.72656-0.41016 0.98828-0.26172 0.26563-0.61719 0.41016-0.98828 0.41016z"
       id="path16" />
    <path
       d="m50 55.816c-0.5 0-0.96094-0.26953-1.2109-0.70312l-7.0312-12.176c-0.25-0.43359-0.25-0.96484 0-1.3984 0.25-0.43359 0.71484-0.70312 1.2148-0.69922h14.055c0.5-0.003906 0.96484 0.26562 1.2148 0.69922 0.25 0.43359 0.25 0.96484 0 1.3984l-7.0273 12.176c-0.25391 0.43359-0.71484 0.70312-1.2148 0.70312zm-4.6016-12.18 4.6016 7.9766 4.6016-7.9766z"
       id="path17" />
  </g>
</svg>
