<?xml version="1.0" encoding="UTF-8" standalone="no"?>
<svg
   data-name="Layer 1"
   viewBox="0 0 100 125"
   x="0px"
   y="0px"
   version="1.1"
   id="svg2"
   sodipodi:docname="noun-documentation-6547310.svg"
   inkscape:version="1.3.2 (091e20e, 2023-11-25)"
   xmlns:inkscape="http://www.inkscape.org/namespaces/inkscape"
   xmlns:sodipodi="http://sodipodi.sourceforge.net/DTD/sodipodi-0.dtd"
   xmlns="http://www.w3.org/2000/svg"
   xmlns:svg="http://www.w3.org/2000/svg">
  <sodipodi:namedview
     id="namedview2"
     pagecolor="#ffffff"
     bordercolor="#000000"
     borderopacity="0.25"
     inkscape:showpageshadow="2"
     inkscape:pageopacity="0.0"
     inkscape:pagecheckerboard="0"
     inkscape:deskcolor="#d1d1d1"
     inkscape:zoom="1.888"
     inkscape:cx="49.788136"
     inkscape:cy="62.5"
     inkscape:window-width="1312"
     inkscape:window-height="449"
     inkscape:window-x="0"
     inkscape:window-y="25"
     inkscape:window-maximized="0"
     inkscape:current-layer="svg2" />
  <defs
     id="defs1">
    <style
       id="style1">
      .cls-1 {
        stroke-width: 0px;
      }
    </style>
  </defs>
  <path
     class="cls-1"
     d="m33.776,64.484H9.018c-.947,0-1.718.771-1.718,1.718v8.254c0,.947.771,1.718,1.718,1.718h24.758c.945,0,1.713-.771,1.713-1.718v-8.254c0-.947-.769-1.718-1.713-1.718Zm-.92,9.057H9.934v-6.423h22.922v6.423Zm-3.747-37.285c0-.727.59-1.317,1.317-1.317h25.178c.727,0,1.317.59,1.317,1.317s-.59,1.317-1.317,1.317h-25.178c-.727,0-1.317-.59-1.317-1.317Zm0-4.773c0-.727.59-1.317,1.317-1.317h25.178c.727,0,1.317.59,1.317,1.317s-.59,1.317-1.317,1.317h-25.178c-.727,0-1.317-.59-1.317-1.317Zm10.522-4.778c0-.727.59-1.317,1.317-1.317h14.656c.727,0,1.317.59,1.317,1.317s-.59,1.317-1.317,1.317h-14.656c-.727,0-1.317-.59-1.317-1.317Zm22.799,39.454c-3.492,0-6.333,2.839-6.333,6.328s2.841,6.333,6.333,6.333,6.328-2.841,6.328-6.333-2.839-6.328-6.328-6.328Zm0,10.027c-2.04,0-3.699-1.659-3.699-3.699s1.659-3.694,3.699-3.694,3.694,1.657,3.694,3.694-1.657,3.699-3.694,3.699Zm11.536-1.09c.466-.215.765-.682.765-1.196v-2.823c0-.514-.299-.98-.765-1.196l-1.735-.801-.46-1.112.658-1.795c.177-.482.058-1.022-.305-1.385l-1.997-1.997c-.363-.363-.903-.482-1.385-.305l-1.795.658-1.112-.46-.801-1.735c-.215-.466-.682-.765-1.196-.765h-2.823c-.513,0-.98.299-1.196.765l-.801,1.735-1.112.46-1.795-.658c-.481-.177-1.022-.058-1.385.305l-1.997,1.997c-.363.363-.482.905-.304,1.387l.662,1.794-.46,1.11-1.735.801c-.466.215-.765.682-.765,1.196v2.823c0,.514.299.98.765,1.196l1.735.801.46,1.11-.662,1.794c-.178.482-.059,1.024.304,1.387l1.997,1.997c.363.363.905.482,1.387.304l1.794-.662,1.11.46.801,1.735c.215.466.682.765,1.196.765h2.823c.513,0,.98-.299,1.196-.765l.801-1.735,1.11-.46,1.794.662c.482.178,1.024.059,1.387-.304l1.997-1.997c.363-.363.482-.903.305-1.385l-.658-1.794.46-1.112,1.735-.801Zm-1.869-2.038l-1.438.664c-.301.139-.538.386-.665.692l-.854,2.062c-.126.305-.133.647-.02.957l.546,1.487-.806.806-1.486-.548c-.311-.115-.654-.108-.96.019l-2.062.854c-.306.127-.553.364-.692.665l-.664,1.438h-1.138l-.664-1.438c-.139-.301-.386-.538-.692-.665l-2.062-.854c-.306-.127-.648-.133-.96-.019l-1.486.548-.805-.805.548-1.486c.115-.311.108-.653-.019-.96l-.854-2.062c-.127-.306-.364-.553-.665-.692l-1.438-.664v-1.138l1.438-.664c.301-.139.538-.386.665-.692l.854-2.062c.127-.306.133-.649.019-.96l-.548-1.486.806-.806,1.487.546c.311.114.652.107.957-.02l2.062-.854c.306-.127.553-.364.692-.665l.664-1.438h1.138l.664,1.438c.139.301.386.538.692.665l2.062.854c.305.126.647.133.957.02l1.487-.546.807.807-.546,1.487c-.114.31-.107.652.02.957l.854,2.062c.127.306.364.553.665.692l1.438.664v1.138Zm5.499,8.185c-2.34,4.052-6.117,6.95-10.636,8.16-1.483.397-2.999.591-4.506.591-2.944,0-5.858-.742-8.451-2.16-.02.563-.403,1.071-.976,1.224-.114.031-.229.045-.341.045-.582,0-1.114-.388-1.271-.977l-.704-2.632c-.188-.702.229-1.424.931-1.612l2.627-.705c.703-.189,1.425.228,1.613.931.152.566-.09,1.145-.558,1.447,3.321,1.798,7.255,2.293,10.956,1.303,3.839-1.028,7.048-3.49,9.036-6.933,1.988-3.442,2.516-7.451,1.488-11.289-.487-1.815-1.295-3.492-2.399-4.984-.433-.585-.31-1.409.275-1.842.584-.433,1.409-.31,1.842.275,1.302,1.758,2.253,3.733,2.826,5.869,1.21,4.518.589,9.237-1.751,13.288Zm-27.142.084c-1.106-1.504-1.912-3.182-2.397-4.987-2.122-7.925,2.596-16.099,10.52-18.222,3.698-.993,7.632-.499,10.954,1.299-.467.302-.709.88-.557,1.446.158.589.69.977,1.271.977.113,0,.227-.015.341-.045l2.631-.705c.337-.09.625-.311.8-.614.175-.303.222-.662.131-1l-.705-2.627c-.188-.702-.91-1.119-1.613-.931-.571.153-.953.659-.975,1.22-.804-.44-1.638-.813-2.495-1.12v-11.977c0-1.611-1.311-2.922-2.922-2.922h-2.518v-23.749c0-.727-.59-1.317-1.317-1.317h-4.684v-4.735c0-.727-.59-1.317-1.317-1.317H6.219c-.727,0-1.317.59-1.317,1.317v21.686h-1.935c-1.609,0-2.917,1.311-2.917,2.922v44.579c0,1.609,1.309,2.917,2.917,2.917h46.426s0,0,.001,0c.271,0,.544-.083.779-.256.586-.431.712-1.255.281-1.841Zm14.985-37.573c.154,0,.288.135.288.288v11.256c-.925-.178-1.863-.282-2.807-.309v-11.234h2.518Zm-5.152,11.357c-.803.098-1.602.251-2.393.463-.137.037-.274.075-.409.115v-11.647c0-1.611-1.309-2.922-2.917-2.922h-26.881c-.133,0-.217-.057-.265-.18l-2.345-6.06c-.132-.345-.322-.657-.566-.927l-.011-.013c-.559-.603-1.321-.935-2.146-.935h-8.818v-5.452h7.553c.727,0,1.317-.59,1.317-1.317v-7.548h37.881v36.422ZM15.4,24.922l4.373-4.37v4.37h-4.373Zm-7.864-12.283h46.751v3.418H21.089c-.349,0-.684.139-.931.385l-8.87,8.865c-.247.247-.386.582-.386.931v6.769h-3.367V12.638ZM2.683,80.508v-44.579c0-.159.127-.288.284-.288h19.387c.085,0,.152.027.209.085.022.026.04.058.056.099l2.346,6.064c.436,1.133,1.505,1.865,2.722,1.865h26.881c.154,0,.284.132.284.288v12.658c-7.446,3.57-11.551,12.06-9.338,20.322.354,1.318.854,2.578,1.494,3.768H2.967c-.154,0-.284-.13-.284-.284Z"
     id="path1" />
</svg>
