<?xml version="1.0" encoding="UTF-8" standalone="no"?>
<svg
   version="1.1"
   viewBox="-5.0 -10.0 110.0 135.0"
   id="svg2"
   sodipodi:docname="noun-monitor-6957887.svg"
   inkscape:version="1.3.2 (091e20e, 2023-11-25)"
   xmlns:inkscape="http://www.inkscape.org/namespaces/inkscape"
   xmlns:sodipodi="http://sodipodi.sourceforge.net/DTD/sodipodi-0.dtd"
   xmlns="http://www.w3.org/2000/svg"
   xmlns:svg="http://www.w3.org/2000/svg">
  <defs
     id="defs2" />
  <sodipodi:namedview
     id="namedview2"
     pagecolor="#ffffff"
     bordercolor="#000000"
     borderopacity="0.25"
     inkscape:showpageshadow="2"
     inkscape:pageopacity="0.0"
     inkscape:pagecheckerboard="0"
     inkscape:deskcolor="#d1d1d1"
     inkscape:zoom="1.7481481"
     inkscape:cx="54.915254"
     inkscape:cy="67.5"
     inkscape:window-width="1312"
     inkscape:window-height="449"
     inkscape:window-x="0"
     inkscape:window-y="25"
     inkscape:window-maximized="0"
     inkscape:current-layer="svg2" />
  <path
     d="m5.5898 10.785h88.82c1.6328 0.003906 2.957 1.3281 2.957 2.9609v57.809c0 1.6328-1.3242 2.957-2.957 2.9609h-32.973l1.0938 6.5352h3.4023c2.2578 0 4.0859 1.8281 4.0859 4.0859 0 2.2539-1.8281 4.082-4.0859 4.082h-31.867c-2.2578 0-4.0859-1.8281-4.0859-4.082 0-2.2578 1.8281-4.0859 4.0859-4.0859h3.4062l1.0938-6.5352-32.977 0.003906c-1.6328-0.003906-2.957-1.332-2.957-2.9648v-57.809c0-1.6328 1.3242-2.957 2.957-2.9609zm8.5586 49.426h27.578c0.60156-0.019532 1.0781-0.51172 1.0781-1.1094 0-0.60156-0.47656-1.0938-1.0781-1.1094h-27.578c-0.30078-0.011719-0.58984 0.10156-0.80469 0.3125-0.21875 0.20703-0.33984 0.49609-0.33984 0.79687 0 0.30078 0.12109 0.58594 0.33984 0.79688 0.21484 0.20703 0.50391 0.32031 0.80469 0.3125zm0-5.2148h27.578c0.61328 0 1.1133-0.49609 1.1133-1.1094s-0.5-1.1094-1.1133-1.1094h-27.578c-0.61328 0-1.1094 0.49609-1.1094 1.1094s0.49609 1.1094 1.1094 1.1094zm42.68-25.051h7.3711c0.30078 0.007813 0.58984-0.10547 0.80859-0.3125 0.21484-0.21094 0.33594-0.5 0.33594-0.79687 0-0.30078-0.12109-0.58984-0.33594-0.80078-0.21875-0.20703-0.50781-0.32031-0.80859-0.3125h-7.3672c-0.30078-0.007812-0.59375 0.10547-0.80859 0.3125-0.21484 0.21094-0.33594 0.5-0.33594 0.80078 0 0.29687 0.12109 0.58594 0.33594 0.79687 0.21484 0.20703 0.50781 0.32031 0.80859 0.3125zm0-2.8438h3.9414c0.30078 0.011719 0.58984-0.10156 0.80859-0.3125 0.21484-0.20703 0.33594-0.49609 0.33594-0.79687 0-0.30078-0.12109-0.58984-0.33594-0.79688-0.21875-0.21094-0.50781-0.32422-0.80859-0.3125h-3.9375c-0.30078-0.011718-0.59375 0.10156-0.80859 0.3125-0.21484 0.20703-0.33594 0.49609-0.33594 0.79688 0 0.30078 0.12109 0.58984 0.33594 0.79687 0.21484 0.21094 0.50781 0.32422 0.80859 0.3125zm-8.5273-3.1445h0.003907c-0.61328 0-1.1094 0.5-1.1094 1.1133v4.6875-0.003906c0 0.29688 0.11719 0.57812 0.32422 0.78516 0.20703 0.21094 0.49219 0.32813 0.78516 0.32813h4.6875c0.61328 0 1.1094-0.5 1.1094-1.1133v-4.6797c0-0.61328-0.49609-1.1094-1.1094-1.1094zm3.5781 2.2227h-2.4648v2.4648h2.4648zm4.9492-4.9531h7.3711c0.61328 0 1.1094-0.5 1.1094-1.1133s-0.49609-1.1094-1.1094-1.1094h-7.3672c-0.61328 0-1.1133 0.49609-1.1133 1.1094s0.5 1.1133 1.1133 1.1133zm0-2.8438h3.9414c0.61328 0 1.1094-0.49609 1.1094-1.1094 0-0.61328-0.49609-1.1133-1.1094-1.1133h-3.9375c-0.61328 0-1.1133 0.5-1.1133 1.1133 0 0.61328 0.5 1.1094 1.1133 1.1094zm-8.5273-3.1445h0.003907c-0.29297 0-0.57813 0.11719-0.78516 0.32422-0.20703 0.21094-0.32422 0.49219-0.32422 0.78516v4.6875c0 0.29297 0.11719 0.57812 0.32422 0.78516 0.20703 0.20703 0.49219 0.32422 0.78516 0.32422h4.6875c0.61328 0 1.1094-0.49609 1.1094-1.1094v-4.6758c0-0.61328-0.49609-1.1133-1.1094-1.1133zm3.5781 2.2188h-2.4648v2.4648h2.4648zm-25.023 17.758-10.551 7.5352c0.23828 0.27734 0.48828 0.54297 0.75 0.80469 2.6172 2.6172 6.1172 4.1719 9.8164 4.3555 3.6953 0.18359 7.332-1.0156 10.195-3.3594 2.8672-2.3477 4.7578-5.6758 5.3086-9.3359zm-11.871 5.7578 10.406-7.4336 0.003906-15.305c-4.9883 0.75-9.2578 3.9648-11.359 8.5508-2.0977 4.5859-1.7422 9.9219 0.94922 14.184zm28.086-10.781c-0.47656-3.1836-1.9648-6.1328-4.2422-8.4102s-5.2227-3.7617-8.4062-4.2422v12.652zm-2.6719-9.9805c-2.9453-2.9492-6.8594-4.7305-11.016-5.0117-0.61328-0.042969-1.1406 0.42188-1.1836 1.0312v0.074219 14.996c0 0.61328 0.5 1.1094 1.1133 1.1094h14.992c0.61328 0 1.1094-0.49609 1.1094-1.1094 0-0.050781-0.003906-0.097656-0.011718-0.14844-0.29688-4.1289-2.0742-8.0156-5.0039-10.941zm-12.785 12.781v-15.992c0-0.60938-0.49609-1.1055-1.1094-1.1055-0.050781 0-0.097656 0.003907-0.14844 0.007813-4.3945 0.32422-8.4961 2.3281-11.457 5.5938-2.957 3.2656-4.543 7.5469-4.4297 11.953 0.11719 4.4062 1.9219 8.5977 5.0469 11.707 3.1211 3.1094 7.3242 4.8945 11.73 4.9883s8.6758-1.5117 11.93-4.4844c3.2539-2.9727 5.2383-7.0859 5.5391-11.48 0.019531-0.29688-0.078125-0.58594-0.27344-0.80469-0.19141-0.22266-0.46484-0.35938-0.75781-0.37891h-0.074219zm50.68-3.4531 0.82812-0.10547-6.6211 6.5547-8.7812-4.3242c-0.37109-0.17969-0.80859-0.14453-1.1406 0.097657l-9.4375 6.0195c-0.24609 0.15625-0.42188 0.40625-0.48438 0.69141-0.0625 0.28906-0.011719 0.58594 0.14844 0.83594 0.32812 0.51562 1.0078 0.66406 1.5234 0.33594l8.9648-5.7188 8.9336 4.3984h0.003907c0.42578 0.20703 0.93359 0.12109 1.2695-0.21094l7.2148-7.1445-0.10547 0.87891c-0.035156 0.28906 0.046875 0.58594 0.23047 0.81641 0.17969 0.23438 0.44531 0.38281 0.73828 0.41797 0.60938 0.074219 1.1602-0.35938 1.2344-0.96484l0.5-4.0312c0.015625-0.097657 0.015625-0.19531 0-0.29297-0.035156-0.28906-0.18359-0.55469-0.41797-0.73828-0.23047-0.17969-0.52344-0.26172-0.81641-0.22656l-4.0508 0.50391h-0.003906c-0.60547 0.074219-1.0391 0.625-0.96484 1.2344 0.074218 0.60938 0.62891 1.043 1.2344 0.96875zm0.84375 4.4102c-0.61328 0-1.1133 0.49609-1.1133 1.1094v21.836c0.003906 0.61328 0.5 1.1055 1.1133 1.1055h6.1484c0.61328 0 1.1094-0.49609 1.1094-1.1094v-21.832c0-0.61328-0.49609-1.1094-1.1094-1.1094zm5.0352 2.2188h-3.9258v19.621h3.9258l0.003906-19.621zm-14.527 6.1523c-0.61328 0-1.1094 0.49609-1.1094 1.1094v13.465c0.003906 0.60938 0.5 1.1055 1.1094 1.1055h6.1445c0.61328 0 1.1094-0.49609 1.1094-1.1094v-13.461c0-0.29297-0.11719-0.57422-0.32422-0.78516-0.20703-0.20703-0.48828-0.32422-0.78516-0.32422zm5.0352 2.2188-3.9258 0.003907v11.246h3.9258l0.003906-11.246zm-14.527-6.3828 0.003906 0.003906c-0.61328 0-1.1094 0.49609-1.1094 1.1094v17.625c0.003906 0.60938 0.49609 1.1055 1.1055 1.1055h6.1484c0.61328 0 1.1094-0.49609 1.1094-1.1094v-17.621c0-0.29297-0.11719-0.57812-0.32422-0.78516-0.20703-0.20703-0.49219-0.32422-0.78516-0.32422zm5.0391 2.2188-3.9297 0.003906v15.41h3.9258l0.003906-15.41zm-14.527 3.1719 0.003907 0.003906c-0.29297 0-0.57812 0.11719-0.78516 0.32812-0.20703 0.20703-0.32422 0.48828-0.32422 0.78516v12.23c0.003906 0.60938 0.49609 1.1016 1.1016 1.1055h6.1484c0.61328 0 1.1133-0.49609 1.1133-1.1094v-12.227c0-0.61328-0.5-1.1133-1.1133-1.1133zm5.0352 2.2188h-3.9258l0.003906 10.023h3.9258l0.003906-10.016zm-6.8164 15.145h38.184c0.61328 0 1.1094-0.49609 1.1094-1.1094s-0.49609-1.1094-1.1094-1.1094h-38.184c-0.61328 0-1.1133 0.49609-1.1133 1.1094s0.5 1.1094 1.1133 1.1094zm-44.031 2.6602h90.297v-49.824c-0.003907-0.40234-0.33203-0.73047-0.73828-0.73438h-88.82c-0.40234 0.003906-0.73047 0.33203-0.73438 0.73438v49.824zm90.297 2.2188h-90.297v5.7617c0.003907 0.40625 0.33203 0.73438 0.73828 0.73828h88.82c0.40234-0.003906 0.73047-0.33203 0.73438-0.73828v-5.7617zm-35.957 8.7266h-18.383l-1.0938 6.5352h20.57zm-25.125 12.477h31.867c1.0312 0 1.8633-0.83203 1.8633-1.8633 0-1.0273-0.83203-1.8594-1.8633-1.8594h-31.867c-1.0312 0-1.8633 0.83203-1.8633 1.8594 0 1.0312 0.83203 1.8633 1.8633 1.8633z"
     fill-rule="evenodd"
     id="path1" />
</svg>
