<svg xmlns="http://www.w3.org/2000/svg" xmlns:xlink="http://www.w3.org/1999/xlink" version="1.1" x="0px" y="0px" viewBox="0 0 28 32.5" style="enable-background:new 0 0 28 26;" xml:space="preserve"><g><path d="M21.5,12c2.482,0,4.676,1.211,6.041,3.068C27.829,14.436,28,13.74,28,13c0-2.762-2.238-5-5-5h-0.08   C22.967,7.673,23,7.34,23,7c0-3.866-3.134-7-7-7c-2.598,0-4.859,1.418-6.067,3.519C9.357,3.198,8.705,3,8,3C5.791,3,4,4.791,4,7   c0,0.379,0.069,0.737,0.168,1.084C1.805,8.482,0,10.523,0,13c0,2.762,2.238,5,5,5h9.15C14.846,14.576,17.872,12,21.5,12z"/><path d="M21.5,13c-3.59,0-6.5,2.91-6.5,6.5s2.91,6.5,6.5,6.5c3.59,0,6.5-2.91,6.5-6.5S25.09,13,21.5,13z M26,20h-4v4h-1v-4h-4v-1h4   v-4h1v4h4V20z"/></g><text x="0" y="41" fill="#000000" font-size="5px" font-weight="bold" font-family="'Helvetica Neue', Helvetica, Arial-Unicode, Arial, Sans-serif">Created by Hea Poh Lin</text><text x="0" y="46" fill="#000000" font-size="5px" font-weight="bold" font-family="'Helvetica Neue', Helvetica, Arial-Unicode, Arial, Sans-serif">from the Noun Project</text></svg>