<?xml version="1.0" encoding="UTF-8" standalone="no"?>
<svg
   version="1.1"
   viewBox="-5.0 -10.0 110.0 135.0"
   id="svg2"
   sodipodi:docname="noun-objective-7028944.svg"
   inkscape:version="1.3.2 (091e20e, 2023-11-25)"
   xmlns:inkscape="http://www.inkscape.org/namespaces/inkscape"
   xmlns:sodipodi="http://sodipodi.sourceforge.net/DTD/sodipodi-0.dtd"
   xmlns="http://www.w3.org/2000/svg"
   xmlns:svg="http://www.w3.org/2000/svg">
  <defs
     id="defs2" />
  <sodipodi:namedview
     id="namedview2"
     pagecolor="#ffffff"
     bordercolor="#000000"
     borderopacity="0.25"
     inkscape:showpageshadow="2"
     inkscape:pageopacity="0.0"
     inkscape:pagecheckerboard="0"
     inkscape:deskcolor="#d1d1d1"
     inkscape:zoom="1.7481481"
     inkscape:cx="54.915254"
     inkscape:cy="67.5"
     inkscape:window-width="1312"
     inkscape:window-height="449"
     inkscape:window-x="0"
     inkscape:window-y="25"
     inkscape:window-maximized="0"
     inkscape:current-layer="svg2" />
  <path
     d="m30.199 22.172c0.32812 0.39844 0.28125 0.98828-0.12109 1.3203l-7.5898 6.3516c-0.17188 0.14062-0.37891 0.21875-0.60156 0.21875-0.03125 0-0.070313 0-0.10156-0.011719-0.25-0.03125-0.48828-0.16016-0.64062-0.35938l-3.0117-3.9414c-0.30859-0.41016-0.23828-1 0.17969-1.3203 0.41016-0.30859 1-0.23047 1.3203 0.17969l2.4102 3.1602 6.8281-5.7188c0.41016-0.33203 1-0.28125 1.3281 0.12109zm5.2305 7.1797h18.691c0.51953 0 0.94141-0.42187 0.94141-0.94141 0-0.51953-0.42188-0.94141-0.94141-0.94141h-18.691c-0.51953 0-0.94141 0.42188-0.94141 0.94141 0 0.51953 0.42188 0.94141 0.94141 0.94141zm0-4.9219h26.691c0.51953 0 0.94141-0.42188 0.94141-0.94141s-0.42188-0.94141-0.94141-0.94141l-26.691 0.003906c-0.51953 0-0.94141 0.42188-0.94141 0.94141 0 0.51953 0.42188 0.9375 0.94141 0.9375zm-6.5508 12.262-6.8281 5.7188-2.4102-3.1602c-0.30859-0.41016-0.89844-0.48828-1.3203-0.17969-0.41016 0.30859-0.48828 0.89844-0.17969 1.3203l3.0117 3.9414c0.16016 0.19922 0.39062 0.33984 0.64062 0.35938 0.03125 0 0.070312 0.011719 0.10156 0.011719 0.21875 0 0.42969-0.078125 0.60156-0.21875l7.5898-6.3516c0.39844-0.32812 0.44922-0.92187 0.12109-1.3203-0.33594-0.40234-0.92578-0.45312-1.3281-0.12109zm6.5508 2.3672h26.691c0.51953 0 0.94141-0.42188 0.94141-0.94141 0-0.51953-0.42188-0.94141-0.94141-0.94141l-26.691 0.003907c-0.51953 0-0.94141 0.42187-0.94141 0.94141 0 0.51953 0.42188 0.9375 0.94141 0.9375zm0 4.9219h18.691c0.51953 0 0.94141-0.42188 0.94141-0.94141 0-0.51953-0.42188-0.94141-0.94141-0.94141l-18.691 0.003906c-0.51953 0-0.94141 0.42188-0.94141 0.94141 0 0.51562 0.42188 0.9375 0.94141 0.9375zm-6.5508 7.3477-6.8281 5.7188-2.4102-3.1602c-0.30859-0.41016-0.89844-0.48828-1.3203-0.17969-0.42187 0.30859-0.48828 0.89844-0.17969 1.3203l3.0117 3.9414c0.16016 0.19922 0.39062 0.33984 0.64062 0.35938 0.03125 0 0.070312 0.011719 0.10156 0.011719 0.21875 0 0.42969-0.078125 0.60156-0.21875l7.5898-6.3516c0.39844-0.32812 0.44922-0.92188 0.12109-1.3203-0.33594-0.39844-0.92578-0.46094-1.3281-0.12109zm6.5508 2.3711h26.691c0.51953 0 0.94141-0.42188 0.94141-0.94141 0-0.51953-0.42188-0.94141-0.94141-0.94141l-26.691 0.003906c-0.51953 0-0.94141 0.42188-0.94141 0.94141s0.42188 0.9375 0.94141 0.9375zm0 4.9219h18.691c0.51953 0 0.94141-0.42188 0.94141-0.94141 0-0.51953-0.42188-0.94141-0.94141-0.94141h-18.691c-0.51953 0-0.94141 0.42188-0.94141 0.94141 0 0.51953 0.42188 0.94141 0.94141 0.94141zm-6.5508 7.3398-6.8281 5.7188-2.4102-3.1602c-0.30859-0.41016-0.89844-0.48828-1.3203-0.17969-0.41016 0.30859-0.48828 0.89844-0.17969 1.3203l3.0117 3.9414c0.16016 0.19922 0.39062 0.33984 0.64062 0.35938 0.03125 0 0.070312 0.011718 0.10156 0.011718 0.21875 0 0.42969-0.078125 0.60156-0.21875l7.5898-6.3516c0.39844-0.32812 0.44922-0.92188 0.12109-1.3203-0.33594-0.40234-0.92578-0.45312-1.3281-0.12109zm18.941 0.5h-12.391c-0.51953 0-0.94141 0.42187-0.94141 0.94141 0 0.51953 0.42188 0.94141 0.94141 0.94141h12.391c0.51953 0 0.94141-0.42188 0.94141-0.94141-0.011719-0.52344-0.43359-0.94141-0.94141-0.94141zm-1.6992 4.918h-10.699c-0.51953 0-0.94141 0.42188-0.94141 0.94141 0 0.51953 0.42188 0.94141 0.94141 0.94141h10.699c0.51953 0 0.94141-0.42188 0.94141-0.94141-0.003906-0.51953-0.42188-0.94141-0.94141-0.94141zm38.469-3.6094c-0.14844 0.14844-0.32031 0.26172-0.48828 0.35156 1.6289 2.8086 2.4883 5.9883 2.4883 9.2812 0 10.262-8.3398 18.602-18.602 18.602-4.9492 0-9.4414-1.9609-12.781-5.1211l-33.477-0.003906c-2.3203 0-4.2109-1.8906-4.2109-4.2109v-2.3281h-2.3281c-2.3203 0-4.2109-1.8906-4.2109-4.2109v-64.02c0-0.25 0.10156-0.48828 0.28125-0.66016l11.168-11.168c0.17969-0.17969 0.42187-0.28125 0.67187-0.28125h42.719c2.3203 0 4.2109 1.8906 4.2109 4.2109v2.3281h2.3281c2.3203 0 4.2109 1.8906 4.2109 4.2109v46.148c0.23047 0.12109 0.46875 0.25 0.69922 0.37891 0.089844-0.17969 0.19141-0.35156 0.33984-0.5l4-4c0.37891-0.37891 0.94141-0.51953 1.4609-0.37109 0.51953 0.16016 0.91016 0.58984 1.0117 1.1211l0.62109 3.1406 3.1406 0.62109c0.53125 0.10938 0.96094 0.48828 1.1211 1.0117 0.16016 0.51953 0.019531 1.0781-0.37109 1.4609zm2.1211-4.7812-2.5-0.5-3.4297 3.4297 2.5 0.5zm-7.7617-0.89844 0.5 2.5 3.4297-3.4297-0.5-2.5zm-8.918-49.668v46.5c1.6094 0.17969 3.1719 0.55078 4.6602 1.1289v-45.301c0-1.2891-1.0508-2.3281-2.3281-2.3281zm-55.84 2.75h5.6406c1.2891 0 2.3281-1.0508 2.3281-2.3281v-5.6328zm1 67.297h34.898c-0.46094-1.6094-0.71875-3.3086-0.71875-5.0703 0-10.262 8.3398-18.602 18.602-18.602 0.058594 0 0.10938 0.011719 0.17188 0.011719l-0.003906-50.598c0-1.2891-1.0508-2.3281-2.3281-2.3281l-41.781-0.003906v6.9688c0 2.3203-1.8906 4.2109-4.2109 4.2109h-6.9688v63.078c0.007813 1.2852 1.0586 2.332 2.3398 2.332zm6.5391 6.5312h31.73c-1.1211-1.3984-2.0508-2.9688-2.7305-4.6602h-31.332v2.3281c0 1.293 1.043 2.332 2.332 2.332zm62.969-11.602c0-3.3594-1-6.5781-2.8711-9.3516l-2.6484-0.53125-1.6406 1.6406c1.9102 2.2188 3.0781 5.0898 3.0781 8.2383 0 6.9688-5.6719 12.641-12.641 12.641-6.9648 0.003906-12.648-5.6641-12.648-12.637 0-6.9688 5.6719-12.641 12.641-12.641 3.1484 0 6.0312 1.1602 8.2383 3.0781l1.6406-1.6406-0.53125-2.6484c-2.7695-1.8711-5.9883-2.8711-9.3516-2.8711-9.2188 0-16.719 7.5-16.719 16.719s7.5 16.719 16.719 16.719c9.2344 0.007813 16.734-7.4922 16.734-16.715zm-12.73-2.668-3.3281 3.3281c-0.17969 0.17969-0.42188 0.28125-0.66016 0.28125s-0.48047-0.089844-0.66016-0.28125c-0.37109-0.37109-0.37109-0.96094 0-1.3281l3.3281-3.3281c-0.76172-0.51172-1.6797-0.80859-2.6719-0.80859-2.6484 0-4.8086 2.1602-4.8086 4.8086 0 2.6484 2.1602 4.8086 4.8086 4.8086 2.6484 0 4.8086-2.1602 4.8086-4.8086 0.003906-0.99219-0.30469-1.9141-0.81641-2.6719zm2.9219-5.5703c-1.8711-1.5703-4.2812-2.5195-6.9102-2.5195-5.9414 0-10.77 4.8281-10.77 10.77s4.8281 10.77 10.77 10.77c5.9414 0 10.77-4.8281 10.77-10.77 0-2.6289-0.94922-5.0391-2.5195-6.9102l-2.8984 2.8984c0.83984 1.1211 1.3516 2.5 1.3516 4.0117 0 3.6914-3 6.6914-6.6914 6.6914-3.6914 0-6.6914-3-6.6914-6.6914s3-6.6914 6.6914-6.6914c1.5117 0 2.8906 0.51172 4.0117 1.3516z"
     id="path1" />
</svg>
