<?xml version="1.0" encoding="UTF-8" standalone="no"?>
<svg
   version="1.1"
   viewBox="-5.0 -10.0 110.0 135.0"
   id="svg9"
   sodipodi:docname="noun-purpose-6784809.svg"
   inkscape:version="1.3.2 (091e20e, 2023-11-25)"
   xmlns:inkscape="http://www.inkscape.org/namespaces/inkscape"
   xmlns:sodipodi="http://sodipodi.sourceforge.net/DTD/sodipodi-0.dtd"
   xmlns="http://www.w3.org/2000/svg"
   xmlns:svg="http://www.w3.org/2000/svg">
  <defs
     id="defs9" />
  <sodipodi:namedview
     id="namedview9"
     pagecolor="#ffffff"
     bordercolor="#000000"
     borderopacity="0.25"
     inkscape:showpageshadow="2"
     inkscape:pageopacity="0.0"
     inkscape:pagecheckerboard="0"
     inkscape:deskcolor="#d1d1d1"
     inkscape:zoom="1.7481481"
     inkscape:cx="54.915254"
     inkscape:cy="67.5"
     inkscape:window-width="1312"
     inkscape:window-height="449"
     inkscape:window-x="0"
     inkscape:window-y="25"
     inkscape:window-maximized="0"
     inkscape:current-layer="svg9" />
  <g
     id="g8">
    <path
       d="m85.664 97.551-31.25-45.312c-0.28906-0.42188-0.77344-0.67578-1.2891-0.67578h-1.5625v-20.312h7.8125c0.86328 0 1.5625-0.69922 1.5625-1.5625v-6.25c0-0.86328-0.69922-1.5625-1.5625-1.5625h-7.8125c0-0.86328-0.69922-1.5625-1.5625-1.5625s-1.5625 0.69922-1.5625 1.5625v29.688h-1.5625c-0.51562 0-0.99219 0.25-1.2891 0.67578l-31.25 45.312c-0.32813 0.48047-0.36719 1.1016-0.097657 1.6133 0.26953 0.51563 0.80469 0.83594 1.3828 0.83594h68.75c0.57812 0 1.1133-0.32031 1.3828-0.83594 0.26953-0.51562 0.23438-1.1328-0.097656-1.6133zm-27.852-72.551v3.125h-6.25v-3.125zm-10.117 29.688h4.6094l5.8125 8.4258-3.4297 3.4297-3.582-3.582c-0.60938-0.60938-1.6016-0.60938-2.2109 0l-3.582 3.582-3.4297-3.4297zm-29.094 42.188 21.48-31.148 4.125 4.125c0.60938 0.60938 1.6016 0.60938 2.2109 0l3.582-3.582 3.582 3.582c0.30469 0.30469 0.70312 0.45703 1.1055 0.45703s0.79688-0.15234 1.1055-0.45703l4.125-4.125 21.48 31.148z"
       id="path1" />
    <path
       d="m50 9.375c0.86328 0 1.5625-0.69922 1.5625-1.5625v-6.25c0-0.86328-0.69922-1.5625-1.5625-1.5625s-1.5625 0.69922-1.5625 1.5625v6.25c0 0.86328 0.69922 1.5625 1.5625 1.5625z"
       id="path2" />
    <path
       d="m25 28.125h6.25c0.86328 0 1.5625-0.69922 1.5625-1.5625s-0.69922-1.5625-1.5625-1.5625h-6.25c-0.86328 0-1.5625 0.69922-1.5625 1.5625s0.69922 1.5625 1.5625 1.5625z"
       id="path3" />
    <path
       d="m67.188 26.562c0 0.86328 0.69922 1.5625 1.5625 1.5625h6.25c0.86328 0 1.5625-0.69922 1.5625-1.5625s-0.69922-1.5625-1.5625-1.5625h-6.25c-0.86328 0-1.5625 0.69922-1.5625 1.5625z"
       id="path4" />
    <path
       d="m28.586 21.812c0.14844 0.046875 0.29687 0.0625 0.44531 0.0625 0.67188 0 1.2969-0.4375 1.4961-1.1172 1.9648-6.5938 7.0703-11.703 13.664-13.664 0.82812-0.24609 1.2969-1.1172 1.0547-1.9414-0.24609-0.82812-1.1172-1.2969-1.9414-1.0547-7.6094 2.2656-13.504 8.1602-15.77 15.77-0.24609 0.82812 0.22266 1.6953 1.0547 1.9414z"
       id="path5" />
    <path
       d="m55.805 7.0938c6.5938 1.9648 11.703 7.0703 13.664 13.664 0.20312 0.67969 0.82422 1.1172 1.4961 1.1172 0.14844 0 0.29688-0.023438 0.44531-0.0625 0.82812-0.24609 1.2969-1.1172 1.0547-1.9414-2.2656-7.6094-8.1602-13.504-15.77-15.77-0.82812-0.24609-1.6953 0.22266-1.9414 1.0547-0.24609 0.82812 0.22266 1.6953 1.0547 1.9414z"
       id="path6" />
    <path
       d="m69.469 32.367c-1.9648 6.5938-7.0703 11.703-13.664 13.664-0.82813 0.24609-1.2969 1.1172-1.0547 1.9414 0.20312 0.67969 0.82422 1.1172 1.4961 1.1172 0.14844 0 0.29688-0.023438 0.44531-0.0625 7.6094-2.2656 13.504-8.1602 15.77-15.77 0.24609-0.82812-0.22266-1.6953-1.0547-1.9414-0.82812-0.24609-1.6953 0.22266-1.9414 1.0547z"
       id="path7" />
    <path
       d="m44.195 46.031c-6.5938-1.9648-11.703-7.0703-13.664-13.664-0.24609-0.82813-1.1172-1.2969-1.9414-1.0547-0.82812 0.24609-1.2969 1.1172-1.0547 1.9414 2.2656 7.6094 8.1602 13.504 15.77 15.77 0.14844 0.046874 0.29687 0.0625 0.44531 0.0625 0.67188 0 1.2969-0.4375 1.4961-1.1172 0.24609-0.82812-0.22266-1.6953-1.0547-1.9414z"
       id="path8" />
  </g>
</svg>
