<?xml version="1.0" encoding="UTF-8" standalone="no"?>
<svg
   data-name="Layer 1"
   viewBox="0 0 100 125"
   x="0px"
   y="0px"
   version="1.1"
   id="svg2"
   sodipodi:docname="noun-responsibility-6584209.svg"
   inkscape:version="1.3.2 (091e20e, 2023-11-25)"
   xmlns:inkscape="http://www.inkscape.org/namespaces/inkscape"
   xmlns:sodipodi="http://sodipodi.sourceforge.net/DTD/sodipodi-0.dtd"
   xmlns="http://www.w3.org/2000/svg"
   xmlns:svg="http://www.w3.org/2000/svg">
  <defs
     id="defs2" />
  <sodipodi:namedview
     id="namedview2"
     pagecolor="#ffffff"
     bordercolor="#000000"
     borderopacity="0.25"
     inkscape:showpageshadow="2"
     inkscape:pageopacity="0.0"
     inkscape:pagecheckerboard="0"
     inkscape:deskcolor="#d1d1d1"
     inkscape:zoom="1.888"
     inkscape:cx="49.788136"
     inkscape:cy="62.5"
     inkscape:window-width="1312"
     inkscape:window-height="449"
     inkscape:window-x="0"
     inkscape:window-y="25"
     inkscape:window-maximized="0"
     inkscape:current-layer="svg2" />
  <path
     d="M49.06,49.493h4.402c.738,0,1.337,.598,1.337,1.337s-.598,1.337-1.337,1.337h-4.402c-.738,0-1.337-.598-1.337-1.337s.598-1.337,1.337-1.337Zm-2.449-2.144h4.898c.738,0,1.337-.598,1.337-1.337s-.598-1.337-1.337-1.337h-4.898c-.738,0-1.337,.598-1.337,1.337s.598,1.337,1.337,1.337Zm.214,3.482c0-.738-.598-1.337-1.337-1.337h-3.924c-.738,0-1.337,.598-1.337,1.337s.598,1.337,1.337,1.337h3.924c.738,0,1.337-.598,1.337-1.337Zm19.785-11.85v38.14c0,1.27-1.04,2.3-2.3,2.3h-28.63c-1.26,0-2.3-1.03-2.3-2.3v-9.98c-3.51-.63-6.19-3.71-6.19-7.4s2.68-6.78,6.19-7.41v-6.32c0-.04,.01-.09,.01-.13,0-.03,.01-.07,.01-.1,.01-.01,.01-.02,.01-.03,.01-.04,.02-.08,.03-.12v-.01c.01-.04,.03-.07,.04-.11,0,0,0-.01,.01-.01,.01-.04,.03-.07,.05-.11v-.01c.02-.03,.04-.06,.06-.1l.01-.01c.02-.03,.05-.07,.07-.1h.01c.02-.04,.06-.07,.09-.1l7.99-8c.03-.03,.06-.06,.1-.09,.03-.03,.07-.05,.1-.07q.01-.01,.02-.01c.03-.02,.06-.04,.09-.06q.01,0,.02-.01c.03-.01,.07-.03,.1-.05h.01c.04-.02,.08-.03,.12-.04h.01c.03-.02,.07-.03,.11-.03,.01,0,.02-.01,.03-.01,.04,0,.07-.01,.1-.01,.05-.01,.09-.01,.13-.01h21.6c1.26,0,2.3,1.03,2.3,2.3Zm-32.19,23.54l3.77-3.64c.53-.51,.55-1.35,.04-1.89-.52-.53-1.36-.54-1.89-.03l-2.68,2.57-.41-.56c-.44-.59-1.27-.72-1.87-.28-.59,.44-.72,1.28-.28,1.87l1.32,1.79c.23,.31,.58,.5,.96,.54h.11c.35,0,.68-.13,.93-.37Zm29.51-23.17h-19.88v6.66c0,.74-.6,1.34-1.34,1.34h-6.65v4.98c3.51,.63,6.19,3.71,6.19,7.41s-2.68,6.77-6.19,7.4v9.61h27.87V39.35Zm31.51,50.82c0,.74-.6,1.34-1.34,1.34h-22.36c-.35,0-.67-.13-.91-.35-6.23,3.93-13.39,6-20.83,6s-14.61-2.07-20.85-6.01c-.24,.21-.55,.34-.89,.34H5.9c-.74,0-1.34-.6-1.34-1.34,0-5.2,3.19-9.67,7.72-11.56-1.7-1.39-2.78-3.51-2.78-5.87,0-2.2,.94-4.19,2.45-5.58-.7-2.96-1.07-6.02-1.07-9.09,0-8.91,2.92-17.3,8.45-24.27,5.26-6.64,12.62-11.44,20.76-13.57,1.33-1.71,3.08-3.07,5.11-3.92-1.7-1.39-2.79-3.5-2.79-5.87,0-4.18,3.4-7.58,7.59-7.58s7.58,3.4,7.58,7.58c0,2.37-1.09,4.48-2.79,5.87,2.03,.85,3.78,2.21,5.11,3.92,8.14,2.13,15.5,6.93,20.76,13.57,5.53,6.97,8.45,15.36,8.45,24.27,0,3.08-.37,6.13-1.07,9.1,1.51,1.39,2.46,3.38,2.46,5.59,0,2.37-1.08,4.48-2.78,5.87,4.53,1.89,7.72,6.36,7.72,11.56ZM40.24,26.52h19.51c-.33-2.4-1.52-4.53-3.25-6.06-1.74-1.52-4.02-2.45-6.5-2.45h-.01c-4.97,0-9.1,3.71-9.75,8.51Zm-13.4,62.29c-.33-2.39-1.52-4.52-3.26-6.05-1.74-1.52-4.01-2.45-6.5-2.45-4.98,0-9.1,3.71-9.75,8.5H26.84Zm51.28-10.2c-1.7-1.39-2.79-3.5-2.79-5.87,0-4.18,3.41-7.58,7.59-7.58,.96,0,1.87,.18,2.71,.5,.53-2.49,.8-5.04,.8-7.61,0-15.75-10-29.53-24.68-34.5,.49,1.34,.76,2.79,.76,4.3,0,.74-.59,1.34-1.33,1.34h-22.37c-.74,0-1.33-.6-1.33-1.34,0-1.51,.27-2.96,.76-4.3-14.68,4.97-24.68,18.75-24.68,34.5,0,2.56,.27,5.11,.79,7.59,.85-.32,1.77-.5,2.73-.5,4.18,0,7.59,3.4,7.59,7.58,0,2.36-1.09,4.48-2.79,5.87,3.93,1.64,6.85,5.23,7.56,9.55,6.06,4.15,13.16,6.35,20.56,6.35s14.5-2.2,20.57-6.36c.71-4.31,3.63-7.88,7.55-9.52Zm14.55,10.23c-.65-4.8-4.77-8.51-9.74-8.51h-.02c-4.97,0-9.09,3.71-9.75,8.51h19.51Zm-34.244-24.901h-14.929c-.738,0-1.337,.598-1.337,1.337s.598,1.337,1.337,1.337h14.929c.738,0,1.337-.598,1.337-1.337s-.598-1.337-1.337-1.337Zm0-4.816h-3.504c-.738,0-1.337,.598-1.337,1.337s.598,1.337,1.337,1.337h3.504c.738,0,1.337-.598,1.337-1.337s-.598-1.337-1.337-1.337Zm0-4.815h-8.431c-.738,0-1.337,.598-1.337,1.337s.598,1.337,1.337,1.337h8.431c.738,0,1.337-.598,1.337-1.337s-.598-1.337-1.337-1.337Zm0-4.815h-1.195c-.738,0-1.337,.598-1.337,1.337s.598,1.337,1.337,1.337h1.195c.738,0,1.337-.598,1.337-1.337s-.598-1.337-1.337-1.337Zm-2.39-2.142h2.39c.738,0,1.337-.598,1.337-1.337s-.598-1.337-1.337-1.337h-2.39c-.738,0-1.337,.598-1.337,1.337s.598,1.337,1.337,1.337Zm-8.945,21.405h-6.179c-.738,0-1.337,.598-1.337,1.337s.598,1.337,1.337,1.337h6.179c.738,0,1.337-.598,1.337-1.337s-.598-1.337-1.337-1.337Zm-2.891-8.294c0,.738,.598,1.337,1.337,1.337h5.131c.738,0,1.337-.598,1.337-1.337s-.598-1.337-1.337-1.337h-5.131c-.738,0-1.337,.598-1.337,1.337Zm1.709-6.152h-1.255c-.738,0-1.337,.598-1.337,1.337s.598,1.337,1.337,1.337h1.255c.738,0,1.337-.598,1.337-1.337s-.598-1.337-1.337-1.337Zm11.865,14.445h-6.179c-.738,0-1.337,.598-1.337,1.337s.598,1.337,1.337,1.337h6.179c.738,0,1.337-.598,1.337-1.337s-.598-1.337-1.337-1.337Z"
     id="path1" />
</svg>
