<?xml version="1.0" encoding="UTF-8" standalone="no"?>
<svg
   version="1.1"
   x="0px"
   y="0px"
   viewBox="0 0 100 125"
   id="svg2"
   sodipodi:docname="noun-timing-4015807.svg"
   inkscape:version="1.3.2 (091e20e, 2023-11-25)"
   xmlns:inkscape="http://www.inkscape.org/namespaces/inkscape"
   xmlns:sodipodi="http://sodipodi.sourceforge.net/DTD/sodipodi-0.dtd"
   xmlns="http://www.w3.org/2000/svg"
   xmlns:svg="http://www.w3.org/2000/svg">
  <defs
     id="defs2" />
  <sodipodi:namedview
     id="namedview2"
     pagecolor="#ffffff"
     bordercolor="#000000"
     borderopacity="0.25"
     inkscape:showpageshadow="2"
     inkscape:pageopacity="0.0"
     inkscape:pagecheckerboard="0"
     inkscape:deskcolor="#d1d1d1"
     inkscape:zoom="1.888"
     inkscape:cx="49.788136"
     inkscape:cy="62.5"
     inkscape:window-width="1312"
     inkscape:window-height="449"
     inkscape:window-x="0"
     inkscape:window-y="93"
     inkscape:window-maximized="0"
     inkscape:current-layer="svg2" />
  <g
     transform="translate(0,-952.36218)"
     id="g1">
    <path
       style="text-indent:0;text-transform:none;direction:ltr;block-progression:tb;baseline-shift:baseline;color:#000000;enable-background:accumulate;"
       d="m 44.770485,965.36218 c -0.52291,0.0491 -0.954079,0.57015 -0.905057,1.09375 0.04902,0.5236 0.569401,0.95534 1.09231,0.90625 l 8.98815,0 0,8 c -1.63e-4,0.0104 -1.63e-4,0.0208 0,0.0312 -4.431074,0.13756 -8.62033,1.16436 -12.421124,2.9375 -0.473886,0.22907 -0.696905,0.86924 -0.468133,1.34375 0.228774,0.47451 0.868095,0.69782 1.341981,0.46875 3.837355,-1.7902 8.035895,-2.78125 12.54596,-2.78125 16.558557,0 29.960499,13.4196 29.960499,30.00002 0,16.5804 -13.401943,30 -29.960499,30 -8.240923,0 -15.680434,-3.3332 -21.097186,-8.7188 -0.350514,-0.4355 -1.08894,-0.4751 -1.483944,-0.08 -0.395005,0.3955 -0.355422,1.1349 0.07955,1.4859 5.775682,5.7424 13.723693,9.3125 22.501584,9.3125 17.638014,0 31.957866,-14.3388 31.957866,-32 0,-7.7111 -2.727809,-14.78506 -7.271663,-20.31252 l 5.9921,-6 c 0.582845,-0.56227 0.05904,-1.76422 -0.749012,-1.71875 -0.25759,0.0102 -0.509557,0.12487 -0.686595,0.3125 l -5.898474,5.90625 c -5.623764,-6.02826 -13.530406,-9.88587 -22.345539,-10.15625 1.63e-4,-0.0104 1.63e-4,-0.0208 0,-0.0312 l 0,-8 8.98815,0 c 0.527617,0.008 1.012906,-0.47163 1.012906,-1 0,-0.52836 -0.485289,-1.00747 -1.012906,-1 -6.714606,0 -13.460575,0 -20.16092,0 z m -25.965767,19 c -0.522909,0.0491 -0.954079,0.57015 -0.905056,1.09375 0.04902,0.5236 0.5694,0.95534 1.09231,0.90625 l 12.982883,0 c 0.527617,0.008 1.012906,-0.47163 1.012906,-1 0,-0.52836 -0.485289,-1.00747 -1.012906,-1 -4.383304,-10e-6 -8.801506,0 -13.170137,0 z m 36.015018,1.96875 c -0.490581,0.0616 -0.893083,0.53656 -0.873848,1.03125 l 0,14.00002 c -0.0015,0.031 -0.0015,0.062 0,0.094 -2.83105,0.4748 -4.993416,2.9413 -4.993416,5.9063 0,3.3018 2.694583,6 5.9921,6 3.297516,0 5.9921,-2.6982 5.9921,-6 0,-2.965 -2.162367,-5.4315 -4.993417,-5.9063 0.0015,-0.031 0.0015,-0.062 0,-0.094 l 0,-14.00002 c 0.02258,-0.57824 -0.550183,-1.10396 -1.123519,-1.03125 z m -41.008434,11.03125 c -0.52291,0.0491 -0.954079,0.57015 -0.905057,1.09375 0.04902,0.5236 0.5694,0.95534 1.09231,0.90625 l 11.9842,0 c 0.527617,0.008 1.012906,-0.47163 1.012906,-1 0,-0.52836 -0.485289,-1.00747 -1.012906,-1 -4.050188,-10e-6 -8.136027,0 -12.171453,0 z m 41.13327,6.00002 c 2.218059,0 3.994733,1.779 3.994733,4 0,2.221 -1.776674,4 -3.994733,4 -2.21806,0 -3.994734,-1.779 -3.994734,-4 0,-2.221 1.776674,-4 3.994734,-4 z m -39.135904,6 c -0.522909,0.049 -0.954079,0.5701 -0.905056,1.0937 0.04902,0.5236 0.5694,0.9554 1.09231,0.9063 l 10.985516,0 c 0.527618,0.01 1.012907,-0.4717 1.012907,-1 0,-0.5284 -0.485289,-1.0075 -1.012907,-1 -3.717045,0 -7.470586,0 -11.17277,0 z m 5.9921,12 c -0.522909,0.049 -0.954079,0.5701 -0.905056,1.0937 0.04902,0.5236 0.5694,0.9554 1.09231,0.9063 l 7.989466,0 c 0.527618,0.01 1.012907,-0.4717 1.012907,-1 0,-0.5284 -0.485289,-1.0075 -1.012907,-1 -2.717406,0 -5.474557,0 -8.17672,0 z"
       fill="#000000"
       fill-opacity="1"
       stroke="none"
       marker="none"
       visibility="visible"
       display="inline"
       overflow="visible"
       id="path1" />
  </g>
</svg>
